<svg width="495" height="246" viewBox="0 0 495 246" fill="none" xmlns="http://www.w3.org/2000/svg">
<path d="M304 1.26663C277.733 4.06664 240.533 13.6666 211.6 25.1333C142.667 52.6 82 94.8666 52.4 136.2C52.2667 136.467 48.6667 133.8 44.5334 130.2C34.2667 121.267 27.7334 116.6 23.7334 115.667C18.8 114.467 15.0667 119.8 14 129.4C11.3334 154.733 10 164.2 5.0667 193.667C-0.933299 230.6 -1.06663 239.133 4.13337 243.4C8.80003 247.133 15.0667 245.933 34.6667 237.667C57.0667 228.067 81.3334 220.067 109.333 212.733C135.067 206.067 136.667 205.533 138.667 201.533C140.933 197.533 137.867 193.933 124.4 184.2C108.533 173 104 168.6 104 164.467C104 160.733 116 148.6 137.467 130.333C168.667 104.067 214.667 76.7333 249.333 63.9333C266.4 57.6666 296.4 50.3333 320 46.8666C356.8 41.2666 398.933 43.1333 424 51.1333C450.133 59.6666 474.267 78.7333 482.267 97.1333C483.733 100.733 484.533 106.333 484.533 115C484.667 126.467 484.933 127.667 487.2 127.667C493.2 127.667 496.8 99 492.8 83C482 40.2 438.533 11.1333 372.267 2.3333C358.533 0.466629 317.2 -0.200027 304 1.26663ZM382.667 13.4C429.067 21.8 465.2 43.1333 478.667 70.2C484.4 81.6666 483.6 82.8666 475.867 74.4666C458.533 55.5333 436.533 44.0666 406 38.0666C387.6 34.4666 341.6 34.8666 316.267 38.7333C292.133 42.4666 260.4 50.6 244 57C214.933 68.4666 178.667 89 150.933 109.8C134 122.467 102 151.267 98.5334 156.867C92.4 166.867 96.8 174.2 117.333 188.2C129.2 196.333 131.6 198.6 130.267 199.933C129.867 200.2 120.533 202.867 109.467 205.8C81.8667 212.867 58.8 220.6 36.6667 229.933C26 234.467 15.7334 237.933 12.6667 238.067L7.33337 238.333L6.93337 231.933C6.6667 228.467 8.6667 213.133 11.2 197.933C13.7334 182.733 17.0667 160.467 18.6667 148.333C21.6 124.867 22 123 23.7334 123C24.2667 123 30.8 127.533 38 133C45.3334 138.467 52.4 143 53.8667 143C55.4667 143 62.9334 136.2 73.2 125.533C90.8 107.133 101.2 98.0666 120 84.8666C178.4 43.8 242.4 18.2 306.667 10.4666C309.2 10.2 324 10.0666 339.333 10.3333C360.4 10.6 371.067 11.4 382.667 13.4Z" fill="black"/>
</svg>
