<svg width="100" height="237" viewBox="0 0 100 237" fill="none" xmlns="http://www.w3.org/2000/svg">
<path d="M47.8668 1.33324C40.9334 4.13324 38.6668 13.9999 42.6668 23.5999C43.8668 26.2666 47.3334 31.1999 50.5334 34.6666C56.5334 41.0666 59.3334 47.7332 59.3334 55.5999C59.3334 60.9332 58.6668 60.9332 52.4001 56.6666C45.8668 52.2666 40.9334 50.3999 37.8668 51.3332C28.4001 54.3999 40.2668 72.5332 54.8001 77.3332C58.9334 78.7999 59.3334 79.3332 59.3334 83.9999C59.3334 91.0666 56.5334 109.333 55.4668 109.333C55.0668 109.333 50.2668 107.467 44.9334 105.2C34.4001 100.8 30.0001 100.933 30.0001 105.733C30.0001 112.8 38.9334 121.333 48.4001 123.333C52.8001 124.267 52.9334 124.4 52.0001 129.067C48.0001 150.667 28.4001 192.933 10.8001 218.533C-0.266558 234.533 -0.933225 235.733 0.666775 236.667C2.93344 238 14.0001 225.733 23.0668 212.133C34.1334 195.333 47.2001 168.4 53.8668 148.667C57.0668 139.067 60.5334 130.667 61.6001 129.867C62.5334 129.067 66.2668 128 69.7334 127.467C80.5334 126 92.5334 116.8 90.5334 111.467C89.3334 108.267 86.0001 107.867 75.7334 109.467C70.2668 110.4 65.6001 110.8 65.3334 110.4C64.4001 109.6 67.4668 82.2666 68.5334 81.0666C68.9334 80.5332 73.0668 79.5999 77.7334 78.7999C87.6001 77.1999 93.2001 74.1332 96.8001 68.5332C100.267 62.7999 100.133 57.8666 96.2668 55.3332C92.1334 52.6666 86.5334 54.5332 76.9334 61.5999C73.0668 64.3999 69.4668 66.5332 68.8001 66.1332C68.2668 65.7332 67.3334 59.4666 66.8001 52.2666C66.1334 42.2666 66.4001 37.1999 68.0001 31.1999C71.3334 18.5332 68.4001 7.5999 60.2668 2.66658C55.7334 -0.133423 52.4001 -0.533432 47.8668 1.33324ZM58.6668 9.99991C61.4668 12.6666 62.0001 14.5332 62.0001 20.9332C62.0001 31.7332 60.8001 33.0666 55.4668 28.5332C50.2668 24.2666 47.3334 18.7999 47.3334 13.5999C47.3334 6.26657 53.2001 4.3999 58.6668 9.99991ZM51.0668 64.5332C53.7334 67.0666 55.6001 69.5999 54.9334 70.1332C53.8668 71.1999 44.5334 64.1332 43.6001 61.5999C42.6668 58.6666 46.0001 59.9999 51.0668 64.5332ZM90.5334 64.7999C87.0668 69.8666 76.6668 74.3999 76.6668 70.7999C76.6668 69.1999 88.5334 61.3332 90.9334 61.3332C92.2668 61.3332 92.2668 62.1332 90.5334 64.7999ZM47.4668 113.467C54.5334 116.533 56.2668 119.333 50.4001 117.867C45.4668 116.667 42.8001 115.2 40.6668 112.8C38.4001 110 39.6001 110.133 47.4668 113.467ZM77.2001 117.467C76.0001 119.467 68.1334 122.667 64.5334 122.667C60.4001 122.667 62.1334 119.6 67.4668 117.733C73.3334 115.733 78.4001 115.6 77.2001 117.467Z" fill="black"/>
</svg>
