<svg width="185" height="206" viewBox="0 0 185 206" fill="none" xmlns="http://www.w3.org/2000/svg">
<path d="M42.9334 2.2001C35.7334 4.86678 30.1334 9.00011 24 16.4668C6.66668 37.2668 -0.266651 63.4001 1.06668 102.867C2.13335 135.667 8.66668 160.6 21.4667 181.267C28.5334 192.6 28.4 192.6 49.3334 188.333C56.4 186.867 62.9334 185.667 63.8667 185.667C64.6667 185.667 66.5334 187.8 67.8667 190.333C69.3334 193 73.0667 197.533 76.2667 200.333C83.7334 207.267 90.1334 207.533 102.8 201.4C122.133 191.933 136.8 173 136.933 157.267C137.067 150.333 137.2 149.8 141.067 148.2C147.067 145.667 163.867 128.2 171.333 116.867C179.867 103.933 183.467 94.0668 184.267 81.5334C185.2 68.7334 182.4 59.5334 175.067 51.5334C168.667 44.4668 160.8 41.6668 148.133 41.6668C130.933 41.6668 111.2 48.6001 90.4 61.6668L82 67.0001L82.2667 50.7334C82.5334 29.2668 79.4667 19.0001 70 9.53343C61.3334 0.866776 53.0667 -1.3999 42.9334 2.2001ZM57.6 15.4001C62 17.8001 65.6 23.1334 68.1334 30.8668C70.4 37.9334 70.2667 47.4001 67.8667 71.4001C67.2 77.6668 67.4667 79.5334 69.3334 81.6668C73.3334 86.0668 78.1334 84.8668 90.1334 76.8668C112 62.3334 128.533 55.4001 144.8 54.0668C158.667 53.0001 165.6 56.0668 170 65.0001C172.533 70.2001 172.933 72.7334 172.4 80.8668C171.333 97.9334 161.067 115.267 141.733 132.867C132.267 141.533 132.133 141.533 124.8 141.533C116.533 141.4 112.667 142.6 104.8 147.667C101.867 149.533 98.9334 151 98.2667 151C97.7334 151 95.6 147.4 93.6 143C89.2 133.4 82.6667 128.333 74.9334 128.333C59.3334 128.333 53.3334 142.6 58.6667 167C59.6 171.8 60.2667 175.8 60 176.067C59.2 177 33.3334 184.333 31.0667 184.333C26.5334 184.333 17.2 154.2 13.8667 129C11.6 111.4 13.0667 74.6001 16.5333 60.7334C20.4 45.2668 26 33.5334 33.6 25.5334C44 14.2001 50.6667 11.5334 57.6 15.4001ZM81.0667 144.867C82.2667 146.6 84.2667 152.067 85.4667 157C87.2 163.933 88.4 166.2 90.9334 167.4C94.5334 169 93.6 169.533 108.8 159.267C114.933 155.267 118.4 153.667 121.333 153.933C125.067 154.333 125.333 154.733 125.067 159.267C124.667 166.467 120.667 173.4 112.4 181.133C104.533 188.6 100 191.4 88.9334 195.133C80.6667 197.933 81.3334 198.333 75.8667 187.933C71.3334 179.133 67.3334 163 67.3334 153.4C67.3334 146.867 67.8667 145 70.6667 142.2C74.4 138.467 77.3334 139.133 81.0667 144.867Z" fill="black"/>
</svg>
