<svg width="103" height="87" viewBox="0 0 103 87" fill="none" xmlns="http://www.w3.org/2000/svg">
<path d="M44.3333 15.3332V30.6665L36.3333 26.6665C31.9333 24.5332 27.8 22.6665 27 22.6665C23.9333 22.6665 26.0667 26.7998 31.8 31.8665C35.9333 35.4665 37.4 37.4665 36.2 37.8665C35.1333 38.2665 27.2667 40.3998 18.4667 42.5332C2.06666 46.5332 -1.26667 48.2665 1.26666 50.7998C2.19999 51.7332 8.59999 51.3332 22.8667 49.1998C34.0667 47.5998 43.5333 46.6665 43.9333 47.0665C44.3333 47.5998 42.0667 52.2665 39 57.5998C35.8 62.9332 33.1333 67.7332 32.8667 68.1332C32.6 68.6665 33.2667 69.7332 34.2 70.5332C35.8 71.8665 37.1333 71.1998 41.4 67.4665C44.3333 64.7998 47.2667 62.6665 47.9333 62.6665C48.6 62.6665 49.9333 66.6665 51 71.5998C53.2667 83.0665 54.8667 86.6665 57.8 86.6665C61.4 86.6665 62.0667 82.5332 61 67.1998C60.4667 59.4665 60.4667 53.3332 61.1333 53.3332C61.8 53.3332 67.1333 55.4665 73 57.9998C84.6 63.0665 88.3333 63.7332 88.3333 60.7998C88.3333 58.1332 86.2 56.2665 75.9333 49.1998C71 45.9998 67 42.9332 67 42.5332C67 42.1332 73.8 39.8665 82.0667 37.4665C96.8667 33.1998 103 30.3998 103 27.9998C103 25.9998 94.6 26.3998 81.2667 28.7998C74.8667 29.9998 69.1333 30.6665 68.7333 30.1332C68.3333 29.7332 69.2667 26.2665 70.8667 22.5332C76.8667 7.99983 73.1333 6.6665 63.8 20.1332C60.3333 25.3332 56.8667 29.0665 56.3333 28.3998C55.8 27.8665 54.3333 22.5332 53 16.6665C50.3333 4.13316 48.6 -0.000167847 46.0667 -0.000167847C44.7333 -0.000167847 44.3333 3.4665 44.3333 15.3332Z" fill="black"/>
</svg>
