<svg width="281" height="289" viewBox="0 0 281 289" fill="none" xmlns="http://www.w3.org/2000/svg">
<path d="M224.867 3.2001C222.6 4.53345 213.667 10.9334 205.133 17.3334L189.533 28.9334L179.267 24.2668C165.4 18.0001 144.733 11.3334 138.867 11.3334C135.8 11.3334 133.267 12.2668 131.667 14.0001C127.933 18.1334 130.867 22.8001 149.933 42.8001C159.4 52.8001 166.867 61.6001 166.6 62.5334C166.333 63.3334 160.733 68.0001 154.2 72.9334C147.667 77.8668 140.2 84.2668 137.533 87.0668C132.733 92.1334 132.733 92.1334 131.933 107.333C130.6 132.267 120.467 163.2 106.6 184.4C88.0667 212.933 55.6667 244 19.9334 267.733C3.80007 278.533 -0.33326 282.667 1.13341 286.533C3.00007 291.333 17.4001 287.467 55.2667 272C82.6001 260.8 124.067 237.467 151.667 217.6C179.667 197.467 206.733 168.933 217.133 148.4C218.867 144.933 221.8 141.067 223.533 140C226.6 137.867 228.467 133.067 235 107.867L237.8 97.0668L245.533 95.7334C259.933 92.9334 274.733 88.4001 277.533 85.8668C279.133 84.4001 280.333 81.8668 280.333 80.1334C280.333 76.1334 276.867 74.0001 254.067 64.0001C244.733 59.8667 236.467 55.8667 235.8 55.3334C235 54.5334 235.133 46.8001 236.2 35.7334C237.933 15.6001 236.867 5.33344 232.867 2.40009C229.8 0.133423 229.8 0.133423 224.867 3.2001ZM229 22.8001C229 28.5334 228.467 38.5334 227.8 44.9334L226.733 56.6667L230.6 60.4001C232.867 62.4001 241.667 67.0668 250.067 70.6667C265.8 77.4668 270.733 80.1334 269.533 81.3334C269.133 81.6001 261.4 83.8668 252.2 86.0001C235 90.4001 230.467 92.9334 229.133 99.7334C226.867 110.533 222.467 128.4 221.4 130.533C220.2 132.8 219.933 132.667 217.533 129.2C216.067 127.067 211.533 119.067 207.4 111.333C203.267 103.6 198.2 95.7334 196.2 93.6001C191.8 89.3334 186.6 88.9334 167 92.0001C153 94.1334 143 94.5334 143 92.9334C143 92.4001 150.2 86.2668 159 79.4668C172.6 68.9334 175 66.5334 175 63.4668C175 58.8001 170.733 53.0668 155.133 36.1334C144.2 24.2668 141.533 20.6667 143.667 20.6667C144.067 20.6667 154.333 24.4001 166.333 28.8001L188.2 37.0668L197.267 31.6001C202.2 28.6667 210.867 22.8001 216.2 18.8001C221.667 14.6667 226.867 11.4668 227.533 11.7334C228.467 12.0001 229 16.5334 229 22.8001ZM181.667 112.8C164.333 164.533 128.467 209.6 79.6667 240.933C67.5334 248.8 47.0001 259.2 47.0001 257.467C47.0001 257.2 53.9334 251.2 62.3334 244C81.8001 227.6 100.733 207.6 111.133 192.4C127.267 168.8 137.533 140.533 138.6 116.267L139.4 102L149.533 101.867C155.133 101.867 165.133 101.067 171.667 100.133C178.333 99.2001 184.2 98.9334 184.733 99.4668C185.4 99.8668 183.933 106 181.667 112.8ZM198.867 113.733C200.467 116.8 204.467 123.467 207.667 128.533C211 133.6 213.667 138.133 213.667 138.533C213.667 140.133 202.333 156.267 192.733 168.267C168.067 199.067 126.6 229.733 75.6667 254.667C49.8001 267.2 40.4667 270.667 58.3334 260.933C89.4001 244.133 109.133 230.133 130.333 210.133C158.867 183.2 180.467 146.933 189 111.733C191.267 102.133 191.267 102 193.667 105.067C194.867 106.667 197.267 110.533 198.867 113.733Z" fill="black"/>
<path d="M99.8 56.3998C99.5334 56.9332 98.6 68.9332 97.8 82.9332C95.9334 114.667 92.4667 135.867 84.8667 160.267C78.6 180.4 77.9334 184.667 80.7334 184.667C84.6 184.667 90.6 174.267 96.8667 156.667C101.933 142.667 104.2 131.067 105.533 111.067C107.533 83.3332 104.067 49.5998 99.8 56.3998Z" fill="black"/>
<path d="M264.067 114.267C263 116 259.933 122.4 257.133 128.533C246.867 151.2 229.933 175.2 206.467 200.4C193.667 214 191.4 218 196.2 218C199.533 218 216.467 204.4 226.2 193.867C235 184.4 250.067 162.533 256.333 150C264.6 133.6 270.867 111.333 267.133 111.333C266.467 111.333 265.133 112.667 264.067 114.267Z" fill="black"/>
<path d="M48.4666 213.333C42.6 219.6 41.5333 223.333 45.4 223.333C47.9333 223.333 57.6666 212.133 57.6666 209.2C57.6666 205.733 53.9333 207.333 48.4666 213.333Z" fill="black"/>
<path d="M145.933 238C139.267 241.2 135 244 135 245.333C135 248.133 137.667 247.867 147.933 243.867C157.667 240 162.467 236.4 161.133 234.133C159.667 231.867 157.533 232.267 145.933 238Z" fill="black"/>
</svg>
