<svg width="402" height="418" viewBox="0 0 402 418" fill="none" xmlns="http://www.w3.org/2000/svg">
<path d="M171.333 4.7999C169.467 10.5332 169.467 10.3999 176.933 75.0666C179.867 101.2 182 123.067 181.6 123.467C181.2 123.867 171.067 118.4 159.2 111.2C136.533 97.5999 122.267 90.7999 116.667 90.6666C110.267 90.6666 107.333 94.1332 107.333 101.467C107.333 109.2 109.733 115.733 124.933 149.333C137.467 176.933 139.467 183.2 136.667 185.867C133.067 189.333 122.267 192 66.5333 203.2C36.2667 209.333 9.2 215.467 6.4 216.933C-3.06667 221.467 -3.09944e-06 229.6 13.2 234.533C16.9333 235.867 36.2667 240.667 56.1333 245.2C111.067 257.6 144.667 268 144.667 272.667C144.667 273.733 140 279.467 134.267 285.6C113.6 307.6 100.933 322.667 100 326.267C99.3333 329.067 99.7333 330.4 102 332.267C104.4 334.267 105.467 334.267 110.667 332.8C113.867 331.733 130.267 323.733 146.933 314.933C163.6 306.133 178.8 298.667 180.667 298.267C186.133 296.933 187.733 299.067 188.267 307.6C188.533 311.867 189.6 333.733 190.667 356.267C193.333 409.067 194.933 417.333 202.533 417.333C211.333 417.333 218 403.6 237.6 344.133C246 318.8 253.6 297.2 254.533 296.267C255.867 294.8 257.2 295.6 261.333 300.267C272 312.4 301.467 341.6 304.933 343.467C313.067 347.733 317.6 344 316.267 334.133C315.733 331.067 310.933 313.733 305.467 295.333C300 277.067 295.6 261.867 295.867 261.6C296.133 261.333 304.267 263.333 313.733 266C336.533 272.267 373.333 279.867 386.667 280.8C396.4 281.6 397.6 281.467 399.867 278.933C405.067 273.067 402.533 270.133 359.6 230.133C344 215.6 331.467 202.933 331.733 202.133C332 201.333 339.467 196.4 348.267 191.333C370.267 178.533 382.933 169.067 385.6 163.333C387.733 158.8 387.733 158.533 385.067 155.867C381.333 152 364.667 150.267 343.2 151.2C334 151.6 326 151.6 325.6 151.067C325.067 150.667 331.733 142.933 340.4 134.133C365.333 108.4 386.4 83.9999 391.067 75.0666C394.8 68.1332 392.533 62.6666 386 62.6666C383.2 62.6666 356.8 75.7332 320.133 95.0666C305.467 102.8 293.2 108.933 292.667 108.667C292.133 108.4 292 94.3999 292.4 77.7332C293.067 43.0666 292 36.9332 285.867 36.2666C281.333 35.7332 280.4 37.1999 264.667 66.6666C251.2 92.1332 245.867 101.333 244.4 101.333C243.867 101.333 241.2 97.3332 238.267 92.2666C235.467 87.3332 229.067 76.1332 224.133 67.3332C208.533 39.8666 191.067 12.1332 185.6 5.99991C181.733 1.46655 179.467 -9.15527e-05 176.667 -9.15527e-05C173.467 -9.15527e-05 172.667 0.799896 171.333 4.7999ZM185.867 19.0666C194.267 31.7332 215.733 67.9999 226.4 87.5999C235.2 104 240.267 110.667 244.133 110.667C248.667 110.667 256.133 100.133 268.4 76.2666C275.333 63.0666 281.733 51.0666 282.8 49.7332C284.4 47.5999 284.667 47.7332 284.933 51.9999C285.067 54.5332 285.2 70.1332 285.333 86.6666V116.667L288.933 117.067C291.6 117.333 304.8 111.2 336.533 94.7999C360.667 82.2666 381.067 71.9999 381.867 71.9999C382.667 71.9999 383.333 72.3999 383.333 72.9332C383.333 75.4666 350 113.067 331.6 131.6C320.4 142.8 311.333 152.667 311.333 153.733C311.333 158.267 314.133 158.667 346.133 158.667C363.6 158.667 378.133 159.2 378.533 159.867C380.4 162.667 366.267 172.933 341.467 186.8C326.533 195.067 322.667 198.933 324.133 204.533C324.667 206.933 336 218.533 358.133 239.6C376.4 256.8 391.333 271.467 391.333 272.133C391.333 275.2 373.333 271.867 329.733 261.067C287.733 250.667 287.333 250.667 287.333 259.467C287.333 261.867 290.267 273.2 293.867 284.533C303.067 313.2 308.667 334.667 307.067 334.667C305.067 334.667 291.6 321.467 275.6 303.733C259.067 285.333 256.4 283.333 252.667 285.333C248.533 287.6 245.733 294.267 233.333 332.667C216.4 384.933 207.333 408 203.467 408C200.933 408 199.867 396.133 197.333 339.867C196.267 315.2 194.8 297.733 193.867 295.6C189.867 286.8 179.067 288.533 154 302C127.067 316.4 113.867 322.933 113.067 322.133C112.133 321.333 116.533 316.133 135.2 296.267C151.333 278.933 154.933 273.467 152.8 269.467C147.867 260.4 122.8 252 51.3333 235.333C23.0667 228.8 12.6667 225.733 12.6667 224C12.6667 222.533 13.0667 222.533 68.6667 211.333C123.333 200.4 132.267 198.267 139.6 194.533C150.533 188.933 149.733 183.067 132.267 144.267C118.667 114.4 114.667 103.6 115.867 100.667C117.067 97.3332 127.2 102 156.4 119.467C182.133 134.933 187.6 137.467 189.067 134.933C189.467 134.4 189.2 130.667 188.533 126.667C186.4 112.933 177.467 16.3999 177.867 10.9332C178.133 8.13324 179.067 9.06656 185.867 19.0666Z" fill="black"/>
<path d="M225.733 135.333C206.267 140.267 183.733 156.533 172.4 173.867C166.8 182.667 161.467 197.867 160.133 209.6C156.133 242.533 185.867 269.733 222 266.133C258.667 262.4 294.934 231.333 299.2 200C302.533 174.8 289.6 149.2 267.867 138.533C260.267 134.8 257.6 134.267 246.267 133.867C238 133.6 230.533 134.133 225.733 135.333ZM263.734 146.533C272.4 150.8 282.267 160.8 286.934 170.267C290.267 177.333 290.667 179.333 290.667 192C290.667 204.8 290.267 206.667 286.8 214C282.267 223.2 269.2 236.933 257.6 244.533C216.933 271.2 168.667 255.2 168.667 215.2C168.667 197.867 177.6 175.067 188.533 164.133C194.4 158.4 214.533 147.6 224.8 144.667C235.867 141.6 255.6 142.533 263.734 146.533Z" fill="black"/>
<path d="M243.733 179.6C241.2 180.533 241.6 186.4 244.267 187.867C249.2 190.533 253.733 184.267 249.733 180.267C248 178.533 246.533 178.4 243.733 179.6Z" fill="black"/>
<path d="M201.2 199.2C199.733 202.933 201.333 206 204.933 206.4C209.067 206.933 211.333 202.533 208.667 199.333C206.533 196.8 202.133 196.8 201.2 199.2Z" fill="black"/>
<path d="M242.8 219.6C243.6 228.533 243.333 230.4 241.2 233.067C239.067 235.733 238.133 236 235.2 234.933C232 233.6 227.067 228.533 224 223.333C222.8 221.333 222.4 221.333 221.067 222.933C218.667 225.733 223.733 235.2 229.333 238.667C238.533 244.4 247.467 240.267 249.333 229.467C250.133 224.267 248.133 214 245.733 210.933C242.8 207.333 242 209.733 242.8 219.6Z" fill="black"/>
</svg>
